<svg xmlns="http://www.w3.org/2000/svg" viewBox="0 0 520 430">
  <defs>
    <linearGradient id="h1" x1="0" x2="1" y1="0" y2="1"><stop stop-color="#2b354d"/><stop offset="1" stop-color="#090d16"/></linearGradient>
    <linearGradient id="h2" x1="0" x2="1"><stop stop-color="#8b5cff"/><stop offset=".5" stop-color="#00d9ff"/><stop offset="1" stop-color="#39e58c"/></linearGradient>
    <filter id="hg"><feGaussianBlur stdDeviation="5" result="b"/><feMerge><feMergeNode in="b"/><feMergeNode in="SourceGraphic"/></feMerge></filter>
  </defs>
  <ellipse cx="260" cy="370" rx="170" ry="25" fill="#000" opacity=".28"/>
  <path d="M114 243v-45C114 104 178 44 260 44s146 60 146 154v45" fill="none" stroke="#3d4962" stroke-width="45" stroke-linecap="round"/>
  <path d="M130 194c9-79 63-126 130-126s121 47 130 126" fill="none" stroke="url(#h1)" stroke-width="25" stroke-linecap="round"/>
  <path d="M140 198c11-64 56-105 120-105s109 41 120 105" fill="none" stroke="url(#h2)" stroke-width="7" filter="url(#hg)"/>
  <rect x="80" y="205" width="105" height="145" rx="43" fill="url(#h1)" stroke="#495772" stroke-width="5" transform="rotate(-7 132 277)"/>
  <rect x="335" y="205" width="105" height="145" rx="43" fill="url(#h1)" stroke="#495772" stroke-width="5" transform="rotate(7 388 277)"/>
  <rect x="102" y="229" width="62" height="96" rx="29" fill="#0d1320" stroke="#65738f" stroke-width="3" transform="rotate(-7 133 277)"/>
  <rect x="356" y="229" width="62" height="96" rx="29" fill="#0d1320" stroke="#65738f" stroke-width="3" transform="rotate(7 387 277)"/>
  <path d="M127 322c27 21 65 37 105 39" fill="none" stroke="#4b5871" stroke-width="7" stroke-linecap="round"/>
  <path d="M232 361c22 1 39-5 47-16" fill="none" stroke="url(#h2)" stroke-width="7" filter="url(#hg)" stroke-linecap="round"/>
  <circle cx="286" cy="340" r="12" fill="#00d9ff" filter="url(#hg)"/>
</svg>
