<svg xmlns="http://www.w3.org/2000/svg" viewBox="0 0 520 420">
  <defs>
    <linearGradient id="m1" x1="0" x2="1" y1="0" y2="1"><stop stop-color="#29334c"/><stop offset="1" stop-color="#090d16"/></linearGradient>
    <linearGradient id="m2" x1="0" x2="1"><stop stop-color="#8b5cff"/><stop offset=".5" stop-color="#00d9ff"/><stop offset="1" stop-color="#39e58c"/></linearGradient>
    <filter id="glow"><feGaussianBlur stdDeviation="5" result="b"/><feMerge><feMergeNode in="b"/><feMergeNode in="SourceGraphic"/></feMerge></filter>
  </defs>
  <ellipse cx="260" cy="353" rx="145" ry="28" fill="#000" opacity=".28"/>
  <path d="M260 42c-80 0-139 65-139 163v58c0 84 61 134 139 134s139-50 139-134v-58C399 107 340 42 260 42Z" fill="url(#m1)" stroke="#43506d" stroke-width="4"/>
  <path d="M260 45v149" stroke="#52617e" stroke-width="4"/>
  <path d="M138 240c23 31 64 48 122 48s99-17 122-48" fill="none" stroke="url(#m2)" stroke-width="12" filter="url(#glow)"/>
  <rect x="241" y="87" width="38" height="67" rx="19" fill="#111827" stroke="#596985" stroke-width="4"/>
  <rect x="252" y="97" width="16" height="31" rx="8" fill="#00d9ff" filter="url(#glow)"/>
  <path d="M174 181c-6 37-5 74 4 112" fill="none" stroke="#52617e" stroke-width="4" opacity=".7"/>
  <path d="M346 181c6 37 5 74-4 112" fill="none" stroke="#52617e" stroke-width="4" opacity=".7"/>
  <path d="M260 320l-31 19 31 18 31-18-31-19Z" fill="none" stroke="#8b5cff" stroke-width="4"/>
</svg>
